<svg xmlns="http://www.w3.org/2000/svg" viewBox="0 0 512 512" role="img" aria-label="WAIt Logo 1">
  <defs>
    <linearGradient id="g1" x1="0" y1="0" x2="1" y2="1">
      <stop offset="0%" stop-color="#128C7E"/>
      <stop offset="100%" stop-color="#25D366"/>
    </linearGradient>
  </defs>
  <rect width="512" height="512" rx="120" fill="url(#g1)"/>
  <path d="M156 348c-8 0-14-6-14-14V198c0-8 6-14 14-14h200c8 0 14 6 14 14v96c0 8-6 14-14 14H230l-52 50c-5 5-10 7-16 7z" fill="#fff" opacity="0.95"/>
  <circle cx="214" cy="246" r="12" fill="#128C7E"/>
  <circle cx="256" cy="246" r="12" fill="#128C7E"/>
  <circle cx="298" cy="246" r="12" fill="#128C7E"/>
  <path d="M202 332h108" stroke="#128C7E" stroke-width="18" stroke-linecap="round"/>
  <path d="M220 300h72" stroke="#128C7E" stroke-width="18" stroke-linecap="round"/>
  <text x="256" y="430" text-anchor="middle" font-family="Segoe UI, Arial, sans-serif" font-size="44" font-weight="700" fill="#ffffff" letter-spacing="2">WAIt</text>
</svg>
